# xmcd
#
# Track frame offsets: 
#        150
#        1732
#        7470
#        9834
#        17859
#        23578
#        29838
#        39881
#        45429
#        48605
#        54065
#        60129
#        66658
#        88799
#        101796
#        115009
#        132828
#        135360
#        147320
#        162106
#        178971
#        183577
#        197705
#        206463
#        222115
#        235701
#        244635
#        257908
#        295191
#        310327
#        314928
#        322464
#        330382
#        331752
#        340057
#        346555
#
# Disc length: 4786 seconds
#
# Revision: 1
# Processed by: cddbd v1.5.2PL0 Copyright (c) Steve Scherf et al.
# Submitted via: ExactAudioCopyFreeDBPlugin 1.0
#
DISCID=0312b024
DTITLE=Ray Charles - Pure Genius:  The Complete Atlantic Recordings (1
DTITLE=952-1959) [Atlantic box set]
DYEAR=2005
DGENRE=Rhythm and Blues
TTITLE0=Baby Let Me Hold Your Hand (previously unreleased)
TTITLE1=Unknow Title (previously unreleased)
TTITLE2=Piano Improvisation and Dialog (previously unreleased)
TTITLE3=Losing Hand and Dialog (previously unreleased)
TTITLE4=Little Rock Getaway and Dialog
TTITLE5=Kentucky Waltz (previously unreleased)
TTITLE6=Heartbreaker (instrumental) (previously unreleased)
TTITLE7=Heartbreaker and Dialog (previously unreleased)
TTITLE8=Piano Improvisation and Dialog #2 (previously unreleased)
TTITLE9=Heartbreaker (flase starts 1-2) (previously unreleased)
TTITLE10=Losing Hand and Dialog #2 (previously unreleased)
TTITLE11=Losing Hand and Dialog #3 (with reverb) (previously unreleased)
TTITLE12=Losing Hand and Dialog #4 (with reverb) (previously unreleased)
TTITLE13=Heartbreaker (previously unreleased)
TTITLE14=It Shoud've Been Me and Dialog (previously unreleased)
TTITLE15=Nobody Cares (previously unreleased)
TTITLE16=Piano Improvisation and Dialog #3 (previously unreleased)
TTITLE17=Mess Around (previously unreleased)
TTITLE18=Funny (But I Still Love You) (previously unreleased)
TTITLE19=Sinner's Prayer (previously unreleased)
TTITLE20=Piano Improvisation and Dialog #4 (previously unreleased)
TTITLE21=Low Society and Dialog (previously unreleased)
TTITLE22=Boogie Woogie
TTITLE23=Low Society and Dialog #2
TTITLE24=Worried Life Blues (Walter Davis version) (previously unrelea
TTITLE24=sed)
TTITLE25=Come Back Baby (take 1) (previously unreleased)
TTITLE26=Low Society and (take 2) (previously unreleased)
TTITLE27=(Night Time Is) The Right Time and Dialog (take 3) (previously 
TTITLE27=unreleased)
TTITLE28=Tell Me How Do You Feel (take 4) (previously unreleased)
TTITLE29=Dialog (take 5) (previously unreleased)
TTITLE30=It Had to Be You and Dialog (take 6) (previously unreleased)
TTITLE31=My Buddy and Dialog (previously unreleased)
TTITLE32=Dialog (previously unreleased)
TTITLE33=When Your Lover Has Gone and Dialog (previously unreleased)
TTITLE34=I'm Beginning to See the Light (previously unreleased)
TTITLE35=Let the Good Times Roll and Dialog (previously unreleased)
EXTD=
EXTT0=
EXTT1=
EXTT2=
EXTT3=
EXTT4=
EXTT5=
EXTT6=
EXTT7=
EXTT8=
EXTT9=
EXTT10=
EXTT11=
EXTT12=
EXTT13=
EXTT14=
EXTT15=
EXTT16=
EXTT17=
EXTT18=
EXTT19=
EXTT20=
EXTT21=
EXTT22=
EXTT23=
EXTT24=
EXTT25=
EXTT26=
EXTT27=
EXTT28=
EXTT29=
EXTT30=
EXTT31=
EXTT32=
EXTT33=
EXTT34=
EXTT35=
PLAYORDER=
